# xmcd
#
# Track frame offsets: 
#        150
#        20825
#        40995
#        62682
#        74682
#        88737
#        106280
#        124077
#        153242
#        171667
#        187745
#        211540
#        230367
#
# Disc length: 3380 seconds
#
# Revision: 0
# Processed by: cddbd v1.5.2PL0 Copyright (c) Steve Scherf et al.
# Submitted via: ExactAudioCopy v0.95b2
#
DISCID=b00d320d
DTITLE=Barb Jungr - Those Days
DYEAR=1900
DGENRE=Jazz
TTITLE0=Not Dark Yet
TTITLE1=Waterloo Sunset
TTITLE2=Kentucky Rain
TTITLE3=Cri Du Coeur
TTITLE4=If Not For You 
TTITLE5=Do You Play Guitar?
TTITLE6=What Good Am I?
TTITLE7=Sunday Morning St. Denis 
TTITLE8=I¡¦ll Be Your Baby Tonight 
TTITLE9=Cathy¡¦s Clown
TTITLE10=To Love Somebody 
TTITLE11=Way Over Yonder
TTITLE12=Always On My Mind
EXTD=
EXTT0=
EXTT1=
EXTT2=
EXTT3=
EXTT4=
EXTT5=
EXTT6=
EXTT7=
EXTT8=
EXTT9=
EXTT10=
EXTT11=
EXTT12=
PLAYORDER=
